<?xml version="1.0" standalone="no"?>
<!DOCTYPE svg PUBLIC "-//W3C//DTD SVG 1.1//EN" "http://www.w3.org/Graphics/SVG/1.1/DTD/svg11.dtd" >
<!--
2013-9-30: Created.
-->
<svg>
<metadata>
Created by iconfont
</metadata>
<defs>

<font id="iconfont" horiz-adv-x="1024" >
  <font-face
    font-family="iconfont"
    font-weight="500"
    font-stretch="normal"
    units-per-em="1024"
    ascent="896"
    descent="-128"
  />
    <missing-glyph />
    
    <glyph glyph-name="arduino" unicode="&#58882;" d="M761.856 147.456c-65.024 0-120.832 22.016-169.984 67.072-30.208 27.648-55.296 61.952-78.336 97.28-23.04-35.328-48.128-69.632-78.336-97.28-52.736-48.128-113.152-70.144-184.832-66.56C113.152 148.48 2.56 256.512 2.56 389.12c0 132.608 111.616 240.64 248.832 240.64 75.264 0 138.24-25.088 193.024-75.776 26.624-24.576 48.64-53.248 69.12-82.944 20.48 29.696 42.496 58.368 69.12 82.944 54.784 51.2 118.272 75.776 193.024 75.776 137.216 0 248.832-108.032 248.832-240.64s-111.104-240.128-247.808-240.64c-5.12-0.512-10.24-1.024-14.848-1.024zM563.2 392.192c27.136-44.032 53.76-85.504 86.016-114.688 36.352-33.28 74.752-47.104 123.904-44.544h2.048c90.112 0 163.84 70.144 163.84 155.648s-73.216 155.648-163.84 155.648c-53.248 0-96.256-16.896-135.168-53.248-29.184-26.624-53.248-61.44-76.8-98.816zM250.88 544.768c-90.112 0-163.84-70.144-163.84-155.648s73.216-155.648 163.84-155.648h2.048c49.664-2.56 87.552 11.264 123.904 44.544 32.256 29.696 58.368 70.656 86.016 114.688-23.552 37.888-47.616 72.192-76.8 99.328-38.912 35.84-81.92 52.736-135.168 52.736zM832.512 419.84v-47.616h-46.08v-46.592h-48.128v46.592h-46.08V419.84h46.08v46.08h48.128v-46.08zM139.42784 411.5968h237.11744v-31.4112H139.42784z"  horiz-adv-x="1024" />

    
    <glyph glyph-name="chelunwheel" unicode="&#59290;" d="M512.857019 747.873494c-246.24431 0-446.616874-200.372563-446.616874-446.644503 0-246.270916 200.372563-446.61585 446.616874-446.61585 246.297522 0 446.644503 200.344934 446.644503 446.61585C959.500499 547.50093 759.154541 747.873494 512.857019 747.873494zM878.090351 301.228991c0-50.005904-10.150174-97.68174-28.409027-141.142577l-152.565744 88.590688c9.461489 23.162536 14.763239 48.416709 14.763239 74.943876 0 14.602579-1.696642 28.806069-4.665253 42.508139l142.519947 76.057233C867.966783 398.778724 878.090351 351.183729 878.090351 301.228991zM809.771359 513.129098l-136.161123-72.638367c-28.568662 39.194674-70.917166 67.683519-120.048143 77.939093L553.562093 664.052436C659.087475 652.285438 750.940462 595.334355 809.771359 513.129098zM512.857019 206.039002c-64.821331 0-117.584022 52.736085-117.584022 117.582999 0 64.847937 52.762691 117.610628 117.584022 117.610628 64.87352 0 117.611651-52.762691 117.611651-117.610628C630.467647 258.775086 577.730539 206.039002 512.857019 206.039002zM147.650293 301.228991c0 53.267181 11.739369 103.777575 32.330336 149.438521l139.472542-80.959893c-3.523243-14.84101-5.591345-30.211069-5.591345-46.085618 0-22.816658 4.054339-44.652989 11.157107-65.085344l-154.764829-82.576717C155.890978 215.101401 147.650293 257.184869 147.650293 301.228991zM472.151945 664.052436l0-145.622612c-45.36828-9.487072-85.12168-34.45165-113.423259-69.139683l-132.822075 77.116355C284.92375 601.456796 372.456339 652.920912 472.151945 664.052436zM210.270493 96.961724l161.707962 86.286202c26.077935-26.15673 59.416228-44.971238 96.622618-53.479005l0-190.779068C361.324814-47.97118 268.148691 11.496214 210.270493 96.961724zM557.139571-61.009124 557.139571 129.768921c36.147268 8.242731 68.558445 26.316366 94.290503 51.305503l158.234861-91.877547C751.469512 7.998553 661.049153-48.369246 557.139571-61.009124z"  horiz-adv-x="1024" />

    
    <glyph glyph-name="wulianwangjiance" unicode="&#59119;" d="M757.122255 16.013975H254.653329c-20.239973 0-36.748972-38.22765-36.748972-38.22765v-38.22458h575.962777v38.22458c0 21.059642-16.502859 38.22765-36.744879 38.22765zM953.097672 828.437232H70.736553c-19.177781 0-34.898835-14.660908-36.604686-33.379225V163.278993c1.705851-18.729573 17.425881-33.377178 36.604686-33.377178h330.928014v-37.446867c0-21.071921 16.515139-38.220487 36.756136-38.220487h134.938272c20.237927 0 36.757159 19.712971 36.757158 38.220487v37.446867h342.987679c20.323884 0 36.763298 16.440437 36.763298 36.761251V791.67905c-0.007163 20.303418-16.443507 36.758182-36.769438 36.758182z m-238.96451-600.138387c-44.00933 0-79.215156 35.20378-79.215156 79.211063 0 14.083763 3.52222 28.16548 10.561543 36.965913l-58.089 56.329937c-17.607006-12.322653-40.48711-19.364023-65.130369-19.364023-31.6877 0-59.85011 12.320607-80.976266 33.446763l-35.204804-35.204804c10.561543-14.08274 17.60496-33.446763 17.60496-54.573942 0-52.806693-44.007283-96.810906-96.817046-96.810907-51.547003 0-94.698802 41.925878-96.734158 93.039v7.543813c2.036379 51.118238 45.229111 93.089142 98.493222 94.810343 21.122063 0 38.727023-7.043417 54.568826-17.60496l38.727023 38.727023c-8.80248 15.842827-14.08274 35.20685-14.08274 54.568826 0 22.88522 5.28026 44.007283 17.603937 61.61122l-47.52848 45.76737c-10.561543-5.281283-21.12411-8.80248-33.446763-8.80248-33.443693 0-61.609173 28.16548-61.609173 61.611219 0 33.446763 28.164456 61.609173 61.609173 61.609173 33.446763 0 61.61122-28.16241 61.611219-61.609173 0-8.801457-3.521197-17.60496-7.040346-26.406416l45.767369-47.526433c21.12411 17.60189 47.52848 28.16241 75.689867 28.16241 21.126156 0 40.489156-5.28026 56.333006-14.07967l47.52848 47.526433c-3.521197 8.80248-7.043417 19.363-7.043417 29.924543 0 33.446763 28.16548 61.612243 61.613266 61.612243 33.444716 0 61.607126-28.16548 61.607127-61.612243 0-33.443693-28.16241-61.609173-61.607127-59.85011-10.56359 0-19.364023 1.763157-28.16548 7.043417l-44.007283-44.007283c21.12411-21.125133 33.444716-49.287543 33.444717-80.975243 0-28.16548-10.561543-54.568826-26.405393-73.932849l54.569849-52.80874c14.084787 8.801457 28.16241 14.08274 45.77044 14.08274 44.007283 0 79.211063-35.205826 79.211063-79.214133-0.001023-44.00626-35.204803-79.21004-79.212086-79.21004z"  horiz-adv-x="1024" />

    
    <glyph glyph-name="wulianwang" unicode="&#59048;" d="M473.088 199.168c-20.48-20.48-20.48-53.76 0-76.8 10.24-10.24 23.04-15.36 38.4-15.36s28.16 5.12 38.4 15.36c20.48 20.48 20.48 53.76 0 76.8-20.48 19.968-56.32 19.968-76.8 0z m150.528 147.968c-28.16 17.92-61.44 28.16-94.208 30.72h-35.84c-33.28-2.56-66.56-12.8-94.208-30.72-15.36-7.68-28.16-20.48-40.96-30.72l-5.12-5.12 64-64 5.12 2.56c17.92 17.92 40.96 28.16 64 35.84 15.36 2.56 30.72 2.56 46.08 0 25.6-5.12 48.64-17.92 64-35.84l5.12-5.12 64 64-5.12 5.12c-6.144 12.8-18.944 23.04-36.864 33.28zM786.944 436.224c-46.08 46.08-101.888 79.36-165.888 99.328-71.68 20.48-147.968 20.48-222.208 0-64-17.92-119.808-53.76-165.888-99.328l-5.12-5.12L291.84 367.616l5.12 5.12c40.96 40.96 87.04 66.56 142.848 79.36 46.08 10.24 89.6 10.24 135.168 0 53.76-12.8 104.448-40.96 142.848-79.36l5.12-5.12 64 64v4.608zM148.992 290.816c-5.12 17.92-5.12 40.96-5.12 61.44 0 66.56 17.92 130.048 51.2 183.808C235.52 609.792 304.64 666.112 384 696.832c12.8 5.12 28.16 7.68 40.96 12.8 15.36-35.84 51.2-58.88 89.6-58.88 40.96 0 76.8 25.6 89.6 58.88 5.12 12.8 7.68 25.6 7.68 38.4 0 7.68 0 15.36-2.56 20.48-12.8 40.96-51.2 76.8-99.328 76.8-46.08 0-87.04-33.28-94.208-76.8l-43.52-12.8c-100.864-33.28-182.272-102.4-230.912-191.488-35.84-64-58.88-135.168-58.88-214.528 0-28.16 2.56-53.76 7.68-81.92 17.92 10.24 38.4 17.92 58.88 23.04z m342.016 484.864c5.12 5.12 12.8 5.12 20.48 5.12s15.36-2.56 20.48-5.12c10.24-5.12 17.92-17.92 17.92-30.72 0-10.24-5.12-20.48-12.8-28.16-5.12-5.12-15.36-10.24-25.6-10.24s-17.92 5.12-25.6 10.24-12.8 17.92-12.8 28.16c0 12.8 7.68 23.04 17.92 30.72z m255.488-709.632c-64-53.76-145.408-84.48-232.448-84.48s-168.448 30.72-232.448 84.48c-10.24 7.68-20.48 17.92-30.72 28.16 12.8 17.92 20.48 35.84 20.48 58.88 0 53.76-43.52 99.328-99.328 99.328-5.12 0-7.68 0-12.8-2.56-20.48-2.56-40.96-12.8-53.76-25.6-17.92-17.92-30.72-43.52-30.72-71.68 0-53.76 43.52-99.328 99.328-99.328 10.24 0 17.92 2.56 28.16 5.12 10.24-10.24 20.48-20.48 33.28-30.72C312.32-35.84 409.088-76.8 516.608-76.8s204.288 40.96 280.576 107.008c-23.04 5.12-37.888 17.92-50.688 35.84z m-538.624 76.8c-5.12-17.92-17.92-28.16-38.4-28.16-5.12 0-12.8 2.56-17.92 5.12-10.24 5.12-17.92 17.92-17.92 33.28 0 20.48 17.92 38.4 38.4 38.4 5.12 0 7.68 0 10.24-2.56 15.36-5.12 28.16-17.92 28.16-35.84v-10.24h-2.56z m712.192 78.848c5.12 15.36 7.68 28.16 10.24 43.52 5.12 28.16 7.68 53.76 7.68 81.92 0 76.8-20.48 150.528-58.88 214.528-51.2 87.04-132.608 158.208-229.888 191.488v-7.68c0-17.92-5.12-35.84-10.24-53.76 79.36-28.16 145.408-87.04 188.928-160.768 30.72-53.76 51.2-117.248 51.2-183.808 0-20.48-2.56-40.96-5.12-58.88-2.56-15.36-5.12-28.16-7.68-40.96-5.12 0-7.68 2.56-12.8 2.56-53.76 0-99.328-43.52-99.328-99.328 0-20.48 7.68-40.96 17.92-58.88 12.8-17.92 28.16-28.16 48.64-35.84 7.68-2.56 17.92-5.12 28.16-5.12 53.76 0 99.328 43.52 99.328 99.328 5.12 31.232-7.68 56.32-28.16 71.68z m-48.64-104.448c-5.12-2.56-10.24-5.12-17.92-5.12-17.92 0-33.28 12.8-38.4 28.16v7.68c0 17.92 10.24 30.72 25.6 35.84 5.12 2.56 7.68 2.56 12.8 2.56 20.48 0 38.4-17.92 38.4-35.84v-2.56c0-10.24-7.68-23.04-20.48-30.72z"  horiz-adv-x="1024" />

    
    <glyph glyph-name="jixiezulin" unicode="&#59015;" d="M854.4 340.8c1.6 14.4 3.2 28.8 3.2 43.2 0 16-1.6 28.8-3.2 43.2L944 496c16 14.4 14.4 30.4 8 40l-84.8 142.4c-9.6 14.4-25.6 17.6-36.8 12.8l-108.8-43.2c-24 17.6-49.6 32-78.4 43.2l-16 112C624 822.4 609.6 832 596.8 832H428.8c-19.2 0-30.4-14.4-32-25.6l-16-112c-28.8-11.2-54.4-27.2-78.4-43.2l-107.2 41.6c-17.6 8-32-1.6-40-12.8l-83.2-140.8c-6.4-11.2-6.4-30.4 6.4-41.6l91.2-68.8c-1.6-14.4-3.2-28.8-3.2-43.2 0-14.4 1.6-28.8 3.2-43.2L80 272c-9.6-6.4-19.2-24-8-41.6l83.2-140.8c6.4-9.6 20.8-20.8 40-12.8l107.2 41.6c24-17.6 49.6-32 78.4-43.2l16-110.4c1.6-12.8 12.8-27.2 32-27.2h168c12.8 0 28.8 8 32 27.2l16 110.4c28.8 11.2 54.4 27.2 78.4 43.2l107.2-41.6c12.8-4.8 30.4-1.6 40 14.4l83.2 139.2c9.6 17.6 1.6 35.2-8 41.6l-91.2 68.8zM512 256c-70.4 0-128 57.6-128 128s57.6 128 128 128 128-57.6 128-128-57.6-128-128-128z"  horiz-adv-x="1024" />

    
    <glyph glyph-name="jixie" unicode="&#58925;" d="M950.491 384a438.857 438.857 0 0 1-13.897 108.983l55.589 84.114-73.143 126.537-100.206-5.851A438.857 438.857 0 0 1 630.126 806.034L584.777 896H438.491l-44.617-89.966a438.857 438.857 0 0 1-188.708-108.983l-100.206 6.583-73.143-127.268 55.589-83.383a423.497 423.497 0 0 1 0-219.429l-55.589-81.92 73.143-126.537 100.206 5.852a438.857 438.857 0 0 1 188.708-108.983L438.491-128h146.286l44.617 89.966a438.857 438.857 0 0 1 188.709 108.983l100.206-5.852 73.142 126.537-55.588 84.115A438.857 438.857 0 0 1 950.49 384zM511.634 91.429A292.571 292.571 0 1 0 804.206 384a292.571 292.571 0 0 0-292.572-292.571zM397.531 447.634v-128L508.71 255.27l111.177 63.634V447.634L511.634 512z"  horiz-adv-x="1024" />

    
    <glyph glyph-name="dianzi" unicode="&#60617;" d="M585.143 457.143v-146.286H438.857V457.143h146.286z m73.143 73.143H365.714v-292.572h292.572V530.286zM1024 477.09V616.728H907.636v162.91H744.727V896H605.091v-116.364H418.909V896H279.273v-116.364h-162.91v-162.909H0v-139.636h116.364v-186.182H0v-139.636h116.364v-162.91h162.909V-128h139.636V-11.636h186.182V-128h139.636V-11.636h162.91V151.273H1024V290.909H907.636V477.091H1024zM768 290.91V128H256V640h512v-349.09z"  horiz-adv-x="1024" />

    
    <glyph glyph-name="liechuan" unicode="&#58899;" d="M1011.4 496.5c-66.2 69.6-221.2 23.3-406.9-39.7C419 393.6 203 313.4 15 315.6c1.2-62.1 49.7-155.7 90.6-229.8h751.9c22.2 224.9 172.5 234.3 153.9 410.7z m-373 17.3L519.7 510l-4.9 30.4 220.1 2.7c18.7 5 37.6 9.7 56.6 14.1l-29.4 95.6C644 673.4 576 673.1 457.9 651.7l-246.7-119 0.4-29.5-18.9-66-35.8-63.8-93.6-20.3 0.1-12.3c218.2 17.5 378.7 106.7 575 173zM753.1 617l5.2-25.3-251.1-8.6-5.1 30.8 251 3.1z m-351.8-38.9l78.2 35-1-34.9-77.2-30.6v30.5z m0-73.5l76.4 34.5-0.9-34.9-75.5-30v30.4z m-79.7 37.7l53.5 24.1v-29l-53.5-21.1v26z m0-73.4l53.5 24.1v-29l-53.5-21.2v26.1z m-84.5 33.2l64.8 31.3v-25l-64.8-28.9v22.6z m-22.5-73.3l87.3 31.2v-24.9l-87.3-29v22.7z"  horiz-adv-x="1024" />

    
    <glyph glyph-name="hangtianchaojifuwuqibeifen" unicode="&#58928;" d="M512 456.533236c117.828247 0 213.333298 52.531191 213.333298 117.333314S629.828247 691.199863 512 691.199863 298.666702 638.668672 298.666702 573.86655 394.171753 456.533236 512 456.533236z m0 17.066664c-109.653315 0-196.266634 47.633059-196.266634 100.26665S402.346685 674.1332 512 674.1332s196.266634-47.633059 196.266634-100.26665S621.653315 473.5999 512 473.5999zM512-29.866683c117.828247 0 213.333298 52.531191 213.333298 117.333314S629.828247 204.799945 512 204.799945 298.666702 152.268753 298.666702 87.466631 394.171753-29.866683 512-29.866683z m0 17.066664c-109.653315 0-196.266634 47.633059-196.266634 100.26665S402.346685 187.733281 512 187.733281s196.266634-47.633059 196.266634-100.26665S621.653315-12.800019 512-12.800019zM512 157.866619c188.518369 0 341.333276 84.053319 341.333276 187.733302s-152.814908 187.733302-341.333276 187.733302-341.333276-84.053319-341.333276-187.733302 152.814908-187.733302 341.333276-187.733302z m0 17.066664c-180.343437 0-324.266613 79.155187-324.266613 170.666638s143.923176 170.666638 324.266613 170.666638 324.266613-79.155187 324.266613-170.666638-143.923176-170.666638-324.266613-170.666638zM503.466668 691.199863h17.066664v-716.79988h-17.066664zM176.298723 383.999915c29.183995-87.381319 168.379705-153.599974 335.701277-153.599975 167.321572 0 306.517282 66.218656 335.701277 153.599975 3.703466-11.076265 5.631999-22.476796 5.631999-34.133328 0-103.679983-152.814908-187.733302-341.333276-187.733302S170.666724 246.186604 170.666724 349.866587c0 11.656531 1.928533 23.057063 5.631999 34.133328zM307.200034 93.86663m-34.133328 0a34.133328 34.133328 0 1 1 68.266656 0 34.133328 34.133328 0 1 1-68.266656 0ZM716.799966 93.86663m-34.133328 0a34.133328 34.133328 0 1 1 68.266656 0 34.133328 34.133328 0 1 1-68.266656 0ZM512-25.600017m-34.133328 0a34.133328 34.133328 0 1 1 68.266656 0 34.133328 34.133328 0 1 1-68.266656 0ZM614.399983 649.301204h-49.646925a21.213863 21.213863 0 0 0-21.725863 21.725863c0 10.871465 8.533332 20.172797 19.404797 20.940796l4.642132 0.785067 1.553067 4.659199a22.698663 22.698663 0 0 0 20.957863 14.728531c9.301332 0 17.834664-5.427199 20.940796-14.728531l1.536-4.659199 4.659199-0.785067c10.871465-1.536 19.404797-10.069332 19.404797-20.940796A21.674663 21.674663 0 0 0 614.399983 649.301204zM434.432013 595.012146A77.80692 77.80692 0 0 0 356.846959 672.580133c0 39.560527 29.474128 72.925855 69.051722 76.799987l10.069332 0.785067L439.091212 759.466519A77.687454 77.687454 0 0 0 512 811.43451a78.404254 78.404254 0 0 0 71.372788-46.540792A92.552518 92.552518 0 0 1 496.469336 672.5972c0-32.580261 16.281597-61.269323 41.89866-77.567987H434.432013z m247.466625 86.869319c0 0.785067 0 2.338133-0.785066 3.106133 0 2.338133-0.768 3.891199-0.768 6.212265 0 1.536-0.785067 2.321066-0.785067 3.874133-0.768 1.553066-0.768 3.106133-1.535999 5.427199 0 1.553066-0.785067 2.338133-1.570133 3.8912-0.768 1.536-0.768 3.106133-1.536 4.642132 0 0 0 0.785067-0.785067 2.338133a16.674131 16.674131 0 0 1-2.338133 3.874133c-0.768 1.553066-1.536 2.321066-2.321066 3.874132-0.768 1.553066-1.553066 2.338133-2.321066 3.8912-0.768 1.536-1.536 2.321066-2.321066 3.874133-0.785067 0.768-1.553066 2.321066-2.338133 3.106132a6.058666 6.058666 0 0 1-3.106133 3.106133c-0.768 0.768-1.536 2.321066-3.106133 3.089066l-3.089066 3.106133c-0.785067 0.785067-1.553066 1.553066-3.106133 2.338133-1.553066 0.768-2.321066 2.321066-3.874133 3.089066a10.820265 10.820265 0 0 1-3.106133 2.338133 16.930131 16.930131 0 0 0-3.874132 3.106133c-0.785067 0.768-1.553066 0.768-3.106133 1.536-1.553066 0.785067-3.106133 1.553066-4.659199 3.106133-0.768 0.785067-1.536 0.785067-2.338133 1.553066-1.536 0.785067-3.874133 1.553066-5.410133 2.338133-0.785067 0-0.785067 0-1.553066 0.768-7.765332 3.106133-15.530664 4.659199-23.278929 6.212265C587.246921 801.348112 553.113593 827.733174 512.017067 827.733174a92.330651 92.330651 0 0 1-87.671452-62.839456C377.787756 760.234519 341.333362 720.691059 341.333362 672.5972c0-51.199991 41.89866-93.081584 93.098651-93.081585h155.135974c51.199991 0 93.098651 41.881593 93.098651 93.081585 0 3.106133 0 6.212266-0.768 9.318398z"  horiz-adv-x="1024" />

    
    <glyph glyph-name="hangtiantianyugongyefanghuoqiangbeifen" unicode="&#58929;" d="M153.6 571.733333l375.466667-170.666666v-460.8L153.6 110.933333V571.733333z m17.066667-26.504533v-423.304533l341.333333-155.153067V390.075733L170.666667 545.2288zM512 844.8l375.466667-170.666667v-460.8L512 384V844.8z m17.066667-26.504533v-423.304534l341.333333-155.153066V663.1424L529.066667 818.295467zM175.872 114.193067l708.266667 544.648533-10.410667 13.5168-708.266667-544.631467zM887.466667 674.133333m-34.133334 0a34.133333 34.133333 0 1 1 68.266667 0 34.133333 34.133333 0 1 1-68.266667 0ZM512-42.666667m-34.133333 0a34.133333 34.133333 0 1 1 68.266666 0 34.133333 34.133333 0 1 1-68.266666 0ZM153.6 110.933333m-34.133333 0a34.133333 34.133333 0 1 1 68.266666 0 34.133333 34.133333 0 1 1-68.266666 0ZM153.6 554.666667m-34.133333 0a34.133333 34.133333 0 1 1 68.266666 0 34.133333 34.133333 0 1 1-68.266666 0ZM512 827.733333m-34.133333 0a34.133333 34.133333 0 1 1 68.266666 0 34.133333 34.133333 0 1 1-68.266666 0ZM887.466667 230.4m-34.133334 0a34.133333 34.133333 0 1 1 68.266667 0 34.133333 34.133333 0 1 1-68.266667 0ZM663.808 268.117333h-269.482667a8.977067 8.977067 0 1 1 0-17.954133h269.482667a8.977067 8.977067 0 1 1 0 17.9712M672.785067 537.6H385.365333A26.965333 26.965333 0 0 1 358.4 510.651733v-188.637866c0-14.848 12.0832-26.948267 26.948267-26.948267H672.768A26.965333 26.965333 0 0 1 699.733333 322.048V510.634667A26.965333 26.965333 0 0 1 672.785067 537.6zM437.8112 421.0176l42.274133 32.1536a4.488533 4.488533 0 1 1-5.4272 7.168l-46.984533-35.754667a4.4544 4.4544 0 0 1 0-7.133866l47.172267-35.9424a4.4544 4.4544 0 0 1 6.280533 0.853333 4.488533 4.488533 0 0 1-0.853333 6.314667l-42.461867 32.341333zM583.714133 460.373333a4.471467 4.471467 0 1 1-5.4272-7.133866l42.274134-32.187734-42.461867-32.3584a4.471467 4.471467 0 0 1 2.730667-8.055466 4.369067 4.369067 0 0 1 2.696533 0.938666l47.1552 35.908267a4.488533 4.488533 0 0 1 0 7.150933l-46.967467 35.7376zM547.089067 461.056a4.488533 4.488533 0 0 1-5.922134-2.286933l-31.573333-71.4752a4.488533 4.488533 0 1 1 8.209067-3.618134l31.573333 71.458134a4.471467 4.471467 0 0 1-2.286933 5.922133"  horiz-adv-x="1024" />

    
    <glyph glyph-name="feiji1" unicode="&#59098;" d="M1028.096 415.616a32392.832 32392.832 0 0 0 761.856 285.568c-155.648 21.888-294.144 41.984-416.512 59.648-416.896 60.16-646.656 93.44-785.536 93.44-58.88 0-101.376-6.144-134.016-19.2-47.36-18.688-93.952-38.912-139.904-60.672l-79.872-38.4 83.456-31.104c5.504-1.92 543.232-201.856 662.912-247.68 25.728-9.856 39.68-25.856 47.616-41.6zM3146.24 769.664c-20.736 77.824-120.704 90.624-361.984 121.472a180.608 180.608 0 0 1-23.04 1.28c-250.88 0-1377.408-431.36-1953.92-658.432-26.112 9.728-51.584 19.2-75.52 27.904C501.76 347.264 374.912 394.24 273.28 394.24a265.344 265.344 0 0 1-85.248-13.056l-2.304-0.896-133.888-62.336 489.088-325.12 264.192 6.144c141.184 3.84 496.128 9.472 961.024 160.768 227.84 74.112 344.064 112.896 754.304 253.44 558.336 191.104 648.96 270.08 625.92 356.48z"  horiz-adv-x="3200" />

    
    <glyph glyph-name="feiji" unicode="&#58898;" d="M1101.51 299.886l-852.146-276.88 31.643-97.388 647.616-4.916 1217.352 395.542c446.281 145.005 806.55 334.371 780.335 415.05-26.214 80.68-428.984 22.12-875.265-122.886l-191.733-62.297L943.955 866.735c-67.166 23.526-175.67 24.733-242.902 2.887-67.702-21.997-81.423-80.483-31.694-130.973l432.152-438.763zM25.95 314.405C-24.46 382.693 3.336 437.53 87.873 436.888l-42.522 0.323c28.292-0.215 72.1-11.024 97.03-23.726l333.366-169.859c75.64-38.54 71.755-90.969-9.206-117.275L223.15 47.27l-197.2 267.136z"  horiz-adv-x="2970" />

    
    <glyph glyph-name="c" unicode="&#58883;" d="M511.976 809.008c-281.064 0-508.976-227.936-508.976-509.08 0-281.064 227.904-508.936 508.976-508.936 281.104 0 509.024 227.896 509.024 508.936C1021 581.112 793.08 809.008 511.976 809.008L511.976 809.008zM346.36 526.984c98.304 72.488 163.176 63.76 163.176 63.76-162.56-77.632-257.488-205.28-257.488-205.28C258.376 446.456 346.36 526.992 346.36 526.984L346.36 526.984zM829.392 261.872l-422.624 0c0 0 0.944-110.384 105.68-131.168 0 0 106.584-16.976 142.432 67.928l159.248 0c0 0-47.904-188.672-287.504-203.72 0 0-61.776-2.152-129.992 33.368-6.36-5.208-57.128-43.368-165.328-38.056 0 0-104.696 0.896-96.232 120.736 0 0 15.08 174.544 212.272 345.344 0 0 124.504 116.016 274.528 163.16 0 0 118.872 40.304 167.952-9.088 0 0 29.248-25.8 23.576-88.104 0 0-5.048-59.136-23.08-75.848 26.144-44.888 44.08-104.968 39.08-184.528L829.392 261.872zM777.264 586.928c0 0-41.064 33.944-129.488-9.928 0 0-84.2-38.88-181.848-118.848 0 0-98.824-84.896-170.504-185.912 0 0-78.328-120.672-81.12-198.056 0 0-2.832-74.544 93.4-63.24 0 0 39.504 3.712 73.56 25.912-45.464 27.336-100.12 79.848-120.12 139.2 0 0 66.472 136.096 175.504 227.568-5.896-5.584-20.28-22.608-29.912-62.504l257.592 0c-0.08 0.4 3.768 98.424-114.328 111.328 0 0-51.616 2.368-89.448-29.408 0 0 37.728 44.6 196.872 137.024 0 0 75.128-22.072 127.672-104.968 7.784 15.16 44.376 92.976-7.816 131.832L777.264 586.928z"  horiz-adv-x="1024" />

    
    <glyph glyph-name="java1" unicode="&#58944;" d="M514.56 893.44c-284.16 0-514.56-227.84-514.56-509.44s230.4-509.44 514.56-509.44 514.56 227.84 514.56 509.44-230.4 509.44-514.56 509.44z m282.624-566.272c3.584-69.12-72.192-108.032-127.488-111.616 25.6 24.064 92.672 63.488 79.36 119.296-5.12 22.528-33.792 36.352-65.536 29.696 40.96 35.328 110.592 21.504 113.664-37.376z m-171.008 266.24c-18.432-15.36-51.712-35.84-53.76-63.488-2.56-42.496 62.464-81.408 27.648-135.168-13.312-20.48-35.328-29.184-63.488-41.984-3.584 6.144 7.168 11.264 11.776 17.92 43.52 62.976-45.056 83.968-33.792 161.28 10.752 74.752 99.328 100.864 181.248 111.616-23.04-16.384-45.056-30.208-69.632-50.176z m-228.864-35.84c32.768 60.416 130.56 96.768 165.376 161.28 8.192 15.872 14.848 39.936 4.096 59.904 13.824-13.312 24.064-37.376 24.064-63.488 0-76.8-81.408-121.344-121.344-173.056-8.704-11.776-19.968-29.184-19.968-47.616 0.512-41.984 44.032-89.088 59.904-123.392-27.648 18.432-61.44 43.008-85.504 71.68-24.576 28.16-48.64 74.752-26.624 114.688z m-10.24-175.104c7.168 0.512 20.992 3.584 31.744 2.048-20.48-9.728-54.784-11.264-69.632-31.744 15.36-11.264 37.376-10.752 57.856-11.776 83.968-3.584 188.928 3.584 260.608 15.872 2.56-5.12-9.728-14.336-17.92-19.968-45.056-33.28-185.856-42.496-282.624-35.84-32.256 2.048-106.496 10.752-107.52 39.936-0.512 35.328 90.112 38.912 127.488 41.472z m167.424-186.88c9.216 2.048 18.432 8.704 26.112 8.192 23.04-1.536 31.744-25.6 51.712-29.696-63.488-38.912-217.088-54.272-280.576-6.144-3.072 35.328 25.6 39.424 51.712 45.568 6.144-2.048-2.048-5.12-2.048-8.192 17.92-31.232 107.52-19.968 153.088-9.728z m-171.008 27.648c-22.016 4.096-60.416 15.872-61.44 33.792-1.536 24.064 37.888 34.304 55.808 37.888 9.216-1.024-6.656-6.656-4.096-13.824 34.304-33.792 140.8-24.064 193.024-13.824 10.752 2.048 22.016 8.704 29.696 8.192 19.968-1.536 32.768-25.088 49.664-27.648-60.928-27.648-177.664-40.448-262.656-24.576zM202.24 125.952c2.56 44.544 110.08 56.832 143.36 27.648-18.944-4.608-68.096 2.048-69.632-24.064-0.512-9.728 16.896-21.504 27.648-26.112 65.024-24.576 195.072-28.16 302.592-15.872 49.664 5.632 143.36 22.528 131.584 73.728 14.848-1.536 28.16-11.264 29.696-26.112 6.144-54.784-120.32-77.824-171.008-83.456-110.592-12.288-249.344-9.728-334.336 19.968-28.16 10.24-61.44 27.648-59.904 54.272zM600.064-11.264H514.56c-74.752 8.192-146.432 18.944-206.848 45.568 158.208-37.888 388.608-35.328 499.712 45.568 6.144 4.608 11.776 12.8 19.968 11.776-28.16-82.944-135.168-88.576-227.328-102.912z"  horiz-adv-x="1029" />

    
    <glyph glyph-name="APP" unicode="&#59099;" d="M385.993769 353.694704h248.82243L510.404984 576.996885zM510.404984 892.809969C229.682243 892.809969 0 663.127726 0 382.404984s229.682243-510.404984 510.404984-510.404984 510.404984 229.682243 510.404985 510.404984-229.682243 510.404984-510.404985 510.404985zM756.037383 130.392523L669.906542 289.894081H350.903427l-89.320872-159.501558H175.451713L510.404984 736.498442l334.953271-606.105919h-89.320872z"  horiz-adv-x="1024" />

    
    <glyph glyph-name="weibiaoti-" unicode="&#58951;" d="M665.6 499.2h57.6v-140.8h-57.6V499.2zM524.8 844.8C268.8 844.8 64 640 64 384s204.8-460.8 460.8-460.8S979.2 128 979.2 384 774.4 844.8 524.8 844.8zM262.4 556.8c0 32 25.6 57.6 57.6 57.6h288c32 0 57.6-25.6 57.6-57.6h57.6c32 0 57.6-25.6 57.6-57.6v-140.8c0-32-25.6-57.6-57.6-57.6h-57.6c0-32-25.6-57.6-57.6-57.6H320c-32 0-57.6 25.6-57.6 57.6v256z m544-403.2H236.8v25.6c0 12.8 12.8 25.6 25.6 25.6h512c12.8 0 25.6-12.8 25.6-25.6v-25.6z"  horiz-adv-x="1024" />

    
    <glyph glyph-name="web" unicode="&#59358;" d="M512 896c282.7776 0 512-229.2224 512-512s-229.2736-512-512-512C229.2224-128 0 101.2224 0 384S229.2224 896 512 896z m56.2688-731.4432H475.4432s-18.5856-53.6064-74.24-53.6064v-26.8288h241.3056v26.8288c-55.7056 0-74.24 53.6064-74.24 53.6064z m168.6016 433.408h-430.08c-29.696 0-53.76-24.576-53.76-54.8352v-274.3296c0-30.2592 24.064-54.8352 53.76-54.8352h430.08c29.696 0 53.76 24.576 53.76 54.8352V543.1296c0 30.208-24.064 54.784-53.76 54.784z"  horiz-adv-x="1024" />

    
    <glyph glyph-name="chanpin3" unicode="&#58946;" d="M512-128a512 512 0 1 0 512 512 512 512 0 0 0-512-512z m37.166545 364.404364h33.233455v15.313454h56.692364v-15.313454h32.907636V384.977455H549.166545v-148.573091zM366.382545 536.797091l-35.84-5.818182a229.829818 229.829818 0 0 0 13.684364-28.346182h-113.058909v-32.290909h57.344l10.752-39.796363H233.774545v-75.264c-0.651636-42.682182-9.448727-75.915636-26.065454-100.072728l25.739636-23.133091c22.109091 30.952727 33.559273 72.005818 34.909091 123.159273v42.356364h229.981091V430.545455H424.727273a282.112 282.112 0 0 1 12.683636 39.796363h54.085818v32.256h-112.407272a292.072727 292.072727 0 0 1-12.70691 34.199273zM512 802.909091a58.181818 58.181818 0 1 1 58.181818-58.181818 58.181818 58.181818 0 0 1-58.181818 58.181818z m268.497455-280.110546h-187.345455v-116.363636h187.345455v116.363636z m43.659636-137.82109H697.413818v-148.573091h33.233455v15.313454h59.624727v-15.313454h33.885091V384.977455zM730.647273 353.047273h59.624727v-69.725091H730.647273V353.047273z m15.639272 85.364363h-118.923636v52.456728h118.923636v-52.456728zM332.8 430.545455l-10.728727 39.796363h82.757818A246.539636 246.539636 0 0 0 391.796364 430.545455H332.8z m249.6-77.498182h56.692364v-69.725091H582.4V353.047273z"  horiz-adv-x="1024" />

    
    <glyph glyph-name="sheji" unicode="&#58984;" d="M512 896C229.668571 896 0 666.331429 0 384s229.668571-512 512-512 512 229.668571 512 512S794.331429 896 512 896z m106.788571-296.96l36.571429 35.108571c4.388571 4.388571 10.24 5.851429 16.091429 5.851429 5.851429 0 11.702857-2.925714 16.091428-5.851429l81.92-77.531428c8.777143-8.777143 8.777143-23.405714 0-30.72l-36.571428-35.108572c-8.777143-8.777143-16.091429-8.777143-24.868572 0L618.788571 574.171429c-8.777143 8.777143-8.777143 16.091429 0 24.868571z m-377.417142-65.828571c0 7.314286 2.925714 11.702857 7.314285 17.554285l87.771429 81.92c10.24 8.777143 26.331429 8.777143 36.571428 0l122.88-115.565714-121.417142-115.565714-1.462858-1.462857-36.571428 35.108571 68.754286 65.828571-17.554286 17.554286-68.754286-65.828571-33.645714 30.72 68.754286 65.828571-17.554286 17.554286-68.754286-65.828572-19.017143 14.628572c-4.388571 4.388571-7.314286 10.24-7.314285 17.554286z m13.165714-393.508572l-2.925714 2.925714 2.925714 8.777143 8.777143-8.777143-8.777143-2.925714z m13.165714 4.388572l-10.24 10.24 13.165714 35.108571 35.108572-32.182857-38.034286-13.165714z m48.274286 14.628571l-42.422857 40.96 38.034285 105.325714 114.102858-109.714285-109.714286-36.571429z m125.805714 52.662857c-1.462857-1.462857-4.388571-2.925714-8.777143-2.925714s-5.851429 1.462857-8.777143 2.925714l-98.011428 93.622857c-4.388571 4.388571-4.388571 11.702857 0 16.091429l261.851428 250.148571c1.462857 1.462857 5.851429 2.925714 8.777143 2.925715 2.925714 0 5.851429-1.462857 8.777143-2.925715l98.011429-93.622857c4.388571-4.388571 4.388571-11.702857 0-16.091428L441.782857 211.382857z m333.531429 5.851429L687.542857 135.314286c-4.388571-4.388571-11.702857-7.314286-17.554286-7.314286-7.314286 0-13.165714 2.925714-17.554285 7.314286l-19.017143 17.554285 62.902857 61.44-17.554286 17.554286-64.365714-61.44-33.645714 30.72 62.902857 61.44-17.554286 17.554286-62.902857-61.44-35.108571 32.182857 124.342857 117.028571L775.314286 252.342857c4.388571-4.388571 7.314286-10.24 7.314285-17.554286 0-5.851429-2.925714-13.165714-7.314285-17.554285z"  horiz-adv-x="1024" />

    
    <glyph glyph-name="app" unicode="&#59085;" d="M512 896A512 512 0 1 0 0 384 512 512 0 0 0 512 896z m-76.316444-377.315556a24.433778 24.433778 0 0 1-25.6-23.125333v-250.140444a25.6 25.6 0 0 1 51.2 0v89.770666h70.343111a97.052444 97.052444 0 0 1 101.432889 91.761778 97.052444 97.052444 0 0 1-101.432889 91.790222h-95.943111z m146.232888-91.790222a48.355556 48.355556 0 0 0-50.375111-45.511111h-70.4v91.107556h70.371556a48.355556 48.355556 0 0 0 50.403555-45.596445z m251.505778 91.790222h-96.056889a24.433778 24.433778 0 0 1-25.6-23.125333v-250.140444a25.6 25.6 0 0 1 51.2 0v89.770666H833.422222a97.052444 97.052444 0 0 1 101.432889 91.761778 97.024 97.024 0 0 1-101.432889 91.733333z m0-137.272888h-70.485333v91.022222H833.422222a48.355556 48.355556 0 0 0 50.375111-45.511111 48.184889 48.184889 0 0 0-50.375111-45.511111z m-515.413333-141.568a26.652444 26.652444 0 0 1 33.735111-11.576889 22.243556 22.243556 0 0 1 12.8 30.549333l-121.230222 243.768889a26.652444 26.652444 0 0 1-46.535111 0L75.548444 258.844444a22.300444 22.300444 0 0 1 12.8-30.549333 27.221333 27.221333 0 0 1 10.467556-2.019555 25.6 25.6 0 0 1 23.267556 13.653333l32.881777 66.019555h130.161778z m-140.060445 112.241777l42.097778 84.736 42.097778-84.736h-84.195556z"  horiz-adv-x="1024" />

    
    <glyph glyph-name="sheji1" unicode="&#58891;" d="M512 384m-512 0a512 512 0 1 1 1024 0 512 512 0 1 1-1024 0ZM730.688 282.816L523.2 626.816c-8.544 14.72-15.52 16.64-30.336 8.096-14.816-8.544-16.672-15.52-8.128-30.336l192.064-352.8c8.576-14.816 18.816-4.576 33.6 4 14.816 8.544 28.8 12.256 20.256 27.04z m54.88-64a46.624 46.624 0 0 1-80.736-46.592c20.704-35.872 51.328-20.8 73.504-59.2 34.24 36.8 20.928 82.112 7.232 105.824zM480.64 509.44a5.44 5.44 0 0 1 7.424 2.016c4.768 8 6.112 17.536 3.808 26.56a35.104 35.104 0 0 1-16.608 21.248 34.816 34.816 0 0 1-26.688 3.744c-8.96-2.464-16.576-8.448-21.12-16.544a5.408 5.408 0 0 1 1.952-7.36l51.232-29.664z m-11.488-15.52l-49.984 28.864a5.44 5.44 0 0 1-7.424-1.984L256.672 252.16l59.36-34.304 155.136 268.704a5.408 5.408 0 0 1-1.984 7.36zM227.52 201.696a5.312 5.312 0 0 1-0.576-3.52L224 136.416a5.44 5.44 0 0 1 8.352-4.8l52.864 33.92a5.408 5.408 0 0 1 1.984 2.368l13.888 24-59.392 34.304-14.176-24.512z m22.976 94.656h7.552l49.92 86.56H250.496a10.88 10.88 0 0 1-10.88-10.88v-64.768c-0.032-6.016 4.832-10.88 10.88-10.912z m504.96 0a10.88 10.88 0 0 1 10.88 10.88v64.8a10.88 10.88 0 0 1-10.88 10.88h-59.264l53.28-86.56h5.984z m-320.192 86.56l-49.92-86.56h243.904l-47.104 86.56h-146.88z"  horiz-adv-x="1024" />

    
    <glyph glyph-name="yidongduan" unicode="&#58896;" d="M781.891918-127.9708 242.156413-127.9708c-49.700477 0-89.979412 40.998866-89.979412 91.584407L152.177002 787.962882c0 50.592589 40.279941 91.584407 89.979412 91.584407l539.734498 0c49.685374 0 89.951219-40.991818 89.951219-91.584407l0-824.348269C871.842129-86.970927 831.577292-127.9708 781.891918-127.9708zM799.87612 807.580273 224.150059 807.580273l0-863.584057 575.725054 0L799.875113 807.580273zM727.924207 159.896258 296.110027 159.896258 296.110027 735.621312 727.924207 735.621312 727.924207 159.896258zM583.990175 15.962226 440.057149 15.962226l0 71.958961 143.933026 0L583.990175 15.962226z"  horiz-adv-x="1024" />

    
    <glyph glyph-name="houduankaifa" unicode="&#59103;" d="M313.901223 150.114159l-65.467037-65.494667 312.488037 0-65.470107 65.494667L313.901223 150.114159 313.901223 150.114159M744.493122 188.829925 64.86124 188.829925 64.86124 684.282041l679.628812 0L744.493122 188.829925 744.493122 188.829925 744.493122 188.829925M679.026084 254.324592 679.026084 618.781234 130.328277 618.781234l0.00307-364.456642L679.026084 254.324592 679.026084 254.324592 679.026084 254.324592M806.330492 86.789924 958.279183 86.789924 958.279183 684.282041 806.330492 684.282041 806.330492 86.789924 806.330492 86.789924M900.213719 253.957225c0-9.898441-8.019651-17.918092-17.915022-17.918092-9.886161 0-17.902742 8.019651-17.902742 17.918092 0 9.895371 8.016581 17.915022 17.902742 17.915022C892.194068 271.872247 900.213719 263.852596 900.213719 253.957225L900.213719 253.957225M898.582569 488.829534l0-165.784814-32.56058 0L866.021989 488.829534 898.582569 488.829534 898.582569 488.829534 898.582569 488.829534M898.582569 488.829534"  horiz-adv-x="1024" />

    
    <glyph glyph-name="zhongyingwen" unicode="&#59299;" d="M568.25 412.21875h-8.0625l30.9375-172.5c20.53125 7.40625 39.09375 18.1875 55.5 32.53125-16.78125 20.53125-30.65625 43.3125-41.15625 67.6875l32.625 4.21875c9-18.46875 19.3125-34.78125 30.9375-48.84375 24.09375 29.25 42.65625 68.25 55.59375 117l-156.375-0.09375z m123.1875-140.0625c18.5625-16.125 39.75-27.84375 63.5625-35.15625l14.90625-4.59375-8.71875-31.78125-14.90625 4.59375c-28.59375 8.71875-54.9375 23.71875-77.25 43.6875-20.90625-18.75-45.375-33.09375-72-42L617.9375 90.75H493.71875l-16.6875-75.9375h389.25c18.28125 0 33.09375 14.8125 33.09375 33.09375V610.875c0 18.28125-14.8125 33.09375-33.09375 33.09375H518.5625l25.875-144.28125-1.03125 0.375 3-15.84375 0.46875 2.0625 7.3125-41.0625h80.25v33.09375h62.0625v-33.09375h103.5V412.125h-43.125c-14.4375-58.125-36.1875-104.90625-65.4375-139.96875zM459.78125 90.9375H157.71875c-36.5625 0-66.1875 29.625-66.1875 66.1875V720.09375c0 36.5625 29.625 66.1875 66.1875 66.1875h331.125l20.8125-109.21875h356.53125c36.5625 0 66.1875-29.625 66.1875-66.1875v-562.96875c0-36.5625-29.625-66.1875-66.1875-66.1875H435.78125l24 109.21875z m-156.46875 255v34.78125h-65.4375v51.28125h60.84375V466.5h-60.84375v43.6875h65.4375v34.5H199.8125v-198.65625h103.5z m159.9375 0V445.03125c0 18-4.125 31.78125-12.375 41.4375-8.25 9.5625-20.4375 14.34375-36.375 14.34375-9.375 0-17.71875-1.875-25.03125-5.625-7.3125-3.75-13.3125-9.46875-17.25-16.6875h-2.0625l-5.0625 19.40625h-28.6875v-151.96875h37.5v71.53125c0 17.90625 2.34375 30.75 7.03125 38.53125 4.59375 7.78125 12.28125 11.625 22.78125 11.625 7.6875 0 13.3125-2.71875 16.78125-8.25 3.5625-5.53125 5.34375-13.6875 5.34375-24.65625v-88.78125H463.25z"  horiz-adv-x="1024" />

    
    <glyph glyph-name="fangkuai" unicode="&#58976;" d="M256.001279 896h511.994372c141.382425 0 255.998209-114.615785 255.998209-255.997186v-512.004605c0-141.366051-114.615785-255.998209-255.998209-255.998209H256.001279c-141.382425 0-255.998209 114.633181-255.998209 255.998209V640.001791c-0.001023 141.382425 114.614761 255.998209 255.998209 255.998209z"  horiz-adv-x="1024" />

    
    <glyph glyph-name="default-option" unicode="&#58880;" d="M905.60000001-104.63573366000003H120.43093301c-56.558933 0-102.4 47.479467-102.4 106.0864V779.28106634C18.03093301 837.85386634 63.87200001 885.33333334 120.43093301 885.33333334H905.60000001c56.558933 0 102.4-47.479467 102.4-106.0864v-777.8304c0-58.5728-45.841067-106.052267-102.4-106.052267z"  horiz-adv-x="1024" />

    
    <glyph glyph-name="fangkuai1" unicode="&#58881;" d="M256.001 896h511.995c141.382 0 255.998-114.616 255.998-255.997v-512.005c0-141.366-114.616-255.998-255.998-255.998H256C114.62-128 0.003-13.367 0.003 127.998V640.002C0.002 781.384 114.618 896 256.001 896z"  horiz-adv-x="1024" />

    


  </font>
</defs>
</svg>
